# xmcd CD database file
#
# Track frame offsets:
#	150
#	12181
#	24863
#	38085
#	51370
#	65985
#	79274
#	90345
#	104941
#	117750
#	127401
#	138051
#	149210
#	159029
#	171152
#
# Disc length: 2456 seconds
#
# Revision: 0
# Processed by: cddbd v1.5.1PL0 Copyright (c) Steve Scherf et al.
# Submitted via: CDex 1.51
#
DISCID=d109960f
DTITLE=Freddy Fender - Just Because
DYEAR=1900
DGENRE=Country
TTITLE0=Before The Next Teardrop Falls
TTITLE1=Wasted Days and Wasted Nights
TTITLE2=Since I Met You Baby
TTITLE3=You'll Lose A Good Thing
TTITLE4=Wild Side Of Life
TTITLE5=Silver Wings
TTITLE6=She's About A Mover
TTITLE7=La Bamba
TTITLE8=Almost Persuaded
TTITLE9=Running Back
TTITLE10=The Rains Came
TTITLE11=Mathilda
TTITLE12=But I Do
TTITLE13=Lovin' Cajun Style
TTITLE14=Goin' Out With The Tide
EXTD=
EXTT0=
EXTT1=
EXTT2=
EXTT3=
EXTT4=
EXTT5=
EXTT6=
EXTT7=
EXTT8=
EXTT9=
EXTT10=
EXTT11=
EXTT12=
EXTT13=
EXTT14=
PLAYORDER=
